<?xml version="1.0" standalone="no"?><!DOCTYPE svg PUBLIC "-//W3C//DTD SVG 1.1//EN" "http://www.w3.org/Graphics/SVG/1.1/DTD/svg11.dtd"><svg t="1562728992843" class="icon" viewBox="0 0 1024 1024" version="1.1" xmlns="http://www.w3.org/2000/svg" p-id="1400" xmlns:xlink="http://www.w3.org/1999/xlink" width="200" height="200"><defs><style type="text/css"></style></defs><path d="M512 263c-45.8 0-83 37.2-83 83s37.2 83 83 83 83-37.2 83-83-37.2-83-83-83z m0 124.5c-22.9 0-41.5-18.6-41.5-41.5s18.6-41.5 41.5-41.5 41.5 18.6 41.5 41.5-18.6 41.5-41.5 41.5z m0 373.5c45.8 0 83-37.2 83-83s-37.2-83-83-83-83 37.2-83 83 37.2 83 83 83z m0-124.5c22.9 0 41.5 18.6 41.5 41.5s-18.6 41.5-41.5 41.5-41.5-18.6-41.5-41.5 18.6-41.5 41.5-41.5zM346 439.4c-45.8 0-83 37.2-83 83s37.2 83 83 83 83-37.2 83-83c0-45.9-37.2-83-83-83z m0 124.5c-22.9 0-41.5-18.6-41.5-41.5s18.6-41.5 41.5-41.5 41.5 18.6 41.5 41.5-18.6 41.5-41.5 41.5z m332 41.5c45.8 0 83-37.2 83-83s-37.2-83-83-83-83 37.2-83 83 37.2 83 83 83z m0-124.5c22.9 0 41.5 18.6 41.5 41.5s-18.6 41.5-41.5 41.5-41.5-18.6-41.5-41.5 18.6-41.5 41.5-41.5z" p-id="1401" fill="#ffffff"></path><path d="M906.3 885.5H512c-220 0-396.2-191.2-371.1-416.2C160 298.2 298.2 160 469.3 140.9 694.3 115.8 885.5 292 885.5 512c0 116.4-53.8 220.3-137.6 288.9-4.8 3.9-7.7 9.7-7.7 15.9v0.6c0 17.3 20.2 27.3 33.6 16.4C867.3 757.7 927 641.9 927 512c0-236.6-198-427-437.3-414.4-209.5 11-381.1 182.6-392.1 392.1C85 729 275.4 927 512 927h394.3c11.4 0 20.8-9.3 20.8-20.8-0.1-11.4-9.4-20.7-20.8-20.7z" p-id="1402" fill="#ffffff"></path><path d="M491.2 512a20.8 20.8 0 1 0 41.6 0 20.8 20.8 0 1 0-41.6 0z" p-id="1403" fill="#ffffff"></path></svg>