<?xml version="1.0" standalone="no"?><!DOCTYPE svg PUBLIC "-//W3C//DTD SVG 1.1//EN" "http://www.w3.org/Graphics/SVG/1.1/DTD/svg11.dtd"><svg t="1562728983729" class="icon" viewBox="0 0 1024 1024" version="1.1" xmlns="http://www.w3.org/2000/svg" p-id="1235" xmlns:xlink="http://www.w3.org/1999/xlink" width="200" height="200"><defs><style type="text/css"></style></defs><path d="M900.2999999999998 746.2999999999998c-9.6 0-18.7-4.999999999999998-23.7-13.5L664.1 377.6C631.9 393.1 572.5 417 513 417.00000000000006s-118.90000000000002-23.9-151-39.4L149.39999999999998 732.8c-6.4 10.600000000000001-19.1 15.7-31.1 12.499999999999998C106.30000000000007 742 98 731 98 718.6000000000001L97.99999999999989 165.29999999999995c0-15.3 12.399999999999999-27.699999999999996 27.700000000000003-27.7l774.7-5.684341886080802e-14c15.3 0 27.699999999999996 12.399999999999999 27.7 27.700000000000003l0 553.3c-8.881784197001252e-16 12.5-8.3 23.3-20.299999999999997 26.699999999999996-2.5999999999999996 0.6999999999999998-5 1-7.499999999999999 1.0000000000000004zM153.3 193l-2.842170943040401e-14 425.6 174.6-291.7c7.800000000000001-13.000000000000002 24.7-17.299999999999997 37.8-9.599999999999998 0.8 0.4 76.5 44.5 147.3 44.499999999999986 71.2 0 146.7-43.99999999999999 147.4-44.49999999999999 13.100000000000001-7.800000000000001 30-3.3999999999999986 37.8 9.599999999999998l174.5 291.7L872.6999999999999 193.00000000000006 153.3 193z" fill="#ffffff" p-id="1236"></path><path d="M762 746.3L263.99999999999994 746.3c-15.3 0-27.699999999999996-12.399999999999999-27.7-27.700000000000003S248.7 691 263.99999999999994 691l498 0c15.3 0 27.699999999999996 12.399999999999999 27.7 27.700000000000003s-12.399999999999999 27.6-27.699999999999996 27.599999999999998zM900.3 884.6L125.69999999999999 884.6c-15.3 0-27.699999999999996-12.399999999999999-27.7-27.700000000000003s12.399999999999999-27.699999999999996 27.700000000000003-27.7l774.7-5.684341886080802e-14c15.3 0 27.699999999999996 12.399999999999999 27.7 27.700000000000003s-12.5 27.7-27.8 27.700000000000003z" fill="#ffffff" p-id="1237"></path></svg>